<svg width="23" height="16" viewBox="0 0 23 16" fill="none" xmlns="http://www.w3.org/2000/svg">
  <path
    d="M0.5 1.78261C0.5 0.990129 1.1423 0.347824 1.93478 0.347824H21.0652C21.8577 0.347824 22.5 0.990129 22.5 1.78261C22.5 2.57509 21.8577 3.21739 21.0652 3.21739H1.93478C1.1423 3.21739 0.5 2.57509 0.5 1.78261ZM21.0652 6.56522H1.93478C1.1423 6.56522 0.5 7.20752 0.5 8C0.5 8.79248 1.1423 9.43478 1.93478 9.43478H21.0652C21.8577 9.43478 22.5 8.79248 22.5 8C22.5 7.20752 21.8577 6.56522 21.0652 6.56522ZM21.0652 12.7826H1.93478C1.1423 12.7826 0.5 13.4249 0.5 14.2174C0.5 15.0099 1.1423 15.6522 1.93478 15.6522H21.0652C21.8577 15.6522 22.5 15.0099 22.5 14.2174C22.5 13.4249 21.8577 12.7826 21.0652 12.7826Z"
    fill="currentColor" />
</svg>
  