<svg xmlns="http://www.w3.org/2000/svg" fill="none" viewBox="19 15.73 9 16.27">
  <path
    d="M20.0287 15.73C20.2882 15.7296 20.5376 15.8304 20.7241 16.0108L27.4041 22.4522C27.5925 22.6333 27.7424 22.8506 27.8448 23.0911C27.9472 23.3315 28 23.5902 28 23.8515C28 24.1129 27.9472 24.3715 27.8448 24.612C27.7424 24.8524 27.5925 25.0697 27.4041 25.2508L20.7241 31.6922C20.6308 31.7893 20.5188 31.8667 20.3949 31.9196C20.2711 31.9724 20.1378 31.9998 20.0031 32C19.8684 32.0002 19.735 31.9732 19.611 31.9207C19.487 31.8681 19.3748 31.7911 19.2812 31.6942C19.1876 31.5974 19.1145 31.4826 19.0663 31.3568C19.0181 31.231 18.9958 31.0968 19.0007 30.9622C19.0055 30.8276 19.0375 30.6953 19.0946 30.5734C19.1518 30.4514 19.2329 30.3422 19.3333 30.2523L25.9692 23.8515L19.3333 17.4507C19.1894 17.3123 19.0902 17.1341 19.0485 16.9388C19.0068 16.7436 19.0244 16.5403 19.0993 16.3553C19.1741 16.1702 19.3025 16.0117 19.4682 15.9003C19.6338 15.7888 19.829 15.7295 20.0287 15.73Z"
    fill="currentColor" />
</svg>