<svg xmlns="http://www.w3.org/2000/svg" viewBox="19 16 9 16.27">
  <path
    d="M26.9713 32.27C26.7118 32.2704 26.4624 32.1696 26.2759 31.9892L19.5959 25.5478C19.4075 25.3667 19.2576 25.1494 19.1552 24.9089C19.0528 24.6685 19 24.4098 19 24.1485C19 23.8871 19.0528 23.6285 19.1552 23.388C19.2576 23.1476 19.4075 22.9303 19.5959 22.7492L26.2759 16.3078C26.3692 16.2107 26.4812 16.1333 26.6051 16.0804C26.7289 16.0276 26.8622 16.0002 26.9969 16C27.1316 15.9998 27.265 16.0268 27.389 16.0793C27.513 16.1319 27.6252 16.2089 27.7188 16.3058C27.8124 16.4026 27.8855 16.5174 27.9337 16.6432C27.9819 16.769 28.0042 16.9032 27.9993 17.0378C27.9945 17.1724 27.9625 17.3047 27.9054 17.4266C27.8482 17.5486 27.7671 17.6578 27.6667 17.7477L21.0308 24.1485L27.6667 30.5493C27.8106 30.6877 27.9098 30.8659 27.9515 31.0612C27.9932 31.2564 27.9756 31.4597 27.9008 31.6447C27.8259 31.8298 27.6975 31.9883 27.5318 32.0997C27.3662 32.2112 27.171 32.2705 26.9713 32.27Z"
    fill="currentColor" />
</svg>