<svg width="16" height="16" viewBox="0 0 16 16" fill="none" xmlns="http://www.w3.org/2000/svg">
  <path fill-rule="evenodd" clip-rule="evenodd"
    d="M8 0C12.4183 0 16 3.58173 16 8C16 12.4183 12.4183 16 8 16C3.58173 16 0 12.4183 0 8C0 3.58173 3.58173 0 8 0ZM14.9333 8C14.9333 4.17083 11.8292 1.06667 8 1.06667C4.17083 1.06667 1.06667 4.17083 1.06667 8C1.06667 11.8292 4.17083 14.9333 8 14.9333C11.8292 14.9333 14.9333 11.8292 14.9333 8ZM11.8296 12.1242C11.6137 12.3246 11.2763 12.3121 11.0758 12.0962L7.60917 8.3629C7.45989 8.20213 7.42429 7.96631 7.51947 7.76863L9.2528 4.16863C9.38059 3.90325 9.69931 3.79167 9.96469 3.91946C10.2301 4.04725 10.3417 4.36596 10.2139 4.63135L8.63832 7.90362L11.8575 11.3704C12.0579 11.5863 12.0454 11.9237 11.8296 12.1242Z"
    fill="currentColor" />
</svg>
  