<svg width="30" height="32" viewBox="0 0 30 32" fill="none" xmlns="http://www.w3.org/2000/svg">
  <path
    d="M29.7181 13.3153C29.568 12.2606 28.2171 11.6578 27.3166 12.4112C25.3654 13.918 22.5137 12.5619 22.5137 10.0004C22.6638 8.79493 21.6131 7.89085 20.5625 8.34289C17.8609 9.39765 15.3093 5.93201 17.2605 3.52114C18.0109 2.61706 17.4106 1.11026 16.2099 0.959579C7.50456 0.20618 0 7.28813 0 16.0276C0 24.315 6.7541 31.0955 15.0091 31.0955C24.4649 31.0955 31.5192 22.5068 29.7181 13.3153ZM15.0091 28.0819C8.40511 28.0819 3.00182 22.6575 3.00182 16.0276C3.00182 9.84969 7.65465 4.72658 13.6583 3.97318C12.7578 7.89085 15.6095 11.5072 19.662 11.3565C20.4124 14.5208 23.7144 16.4796 27.0164 15.7262C27.1665 22.3561 21.7632 28.0819 15.0091 28.0819Z"
    fill="currentColor" />
  <path
    d="M13.9583 16.4797C13.6581 16.781 13.5081 17.0824 13.5081 17.5344C13.5081 18.2878 14.2585 19.0412 15.009 19.0412C15.7594 19.0412 16.5099 18.4385 16.5099 17.5344C16.5099 16.1783 14.8589 15.5756 13.9583 16.4797Z"
    fill="currentColor" />
  <path
    d="M9.60592 16.1783C8.55528 15.7262 7.50464 16.4796 7.50464 17.5344C7.50464 18.4385 8.25509 19.0412 9.00555 19.0412C9.75601 19.0412 10.5065 18.4385 10.5065 17.5344C10.5065 16.9317 10.0562 16.3289 9.60592 16.1783Z"
    fill="currentColor" />
  <path
    d="M9.00555 13.014C9.75601 13.014 10.5065 12.4113 10.5065 11.5072C10.5065 10.1511 8.85546 9.54839 7.95491 10.4525C7.65473 10.7538 7.50464 11.2059 7.50464 11.5072C7.50464 12.2606 8.105 13.014 9.00555 13.014Z"
    fill="currentColor" />
  <path
    d="M10.9569 22.5069C10.6567 22.8083 10.5066 23.2603 10.5066 23.5617C10.5066 24.3151 11.257 25.0685 12.0075 25.0685C12.758 25.0685 13.5084 24.4657 13.5084 23.5617C13.5084 22.2056 11.8574 21.6028 10.9569 22.5069Z"
    fill="currentColor" />
  <path
    d="M21.3131 20.548C20.4125 20.3973 19.512 21.1507 19.512 22.0548C19.512 22.9589 20.2624 23.5616 21.0129 23.5616C21.7633 23.5616 22.5138 22.9589 22.5138 22.0548C22.5138 21.3014 21.9134 20.6987 21.3131 20.548Z"
    fill="currentColor" />
  <path
    d="M22.0635 5.02795L23.5644 3.52115C24.1648 2.91843 24.1648 2.01435 23.5644 1.41163C22.9641 0.808915 22.0635 0.808915 21.4631 1.41163L19.9622 2.91843C19.3619 3.52115 19.3619 4.42523 19.9622 5.02795C20.5626 5.63067 21.4631 5.63067 22.0635 5.02795Z"
    fill="currentColor" />
  <path
    d="M26.2659 8.64415L28.3672 8.19211C29.1176 8.04143 29.718 7.13736 29.5679 6.38396C29.4178 5.63056 28.5173 5.02784 27.7668 5.17852L25.6655 5.63056C24.9151 5.78124 24.3147 6.68532 24.4648 7.43872C24.765 8.34279 25.5154 8.94551 26.2659 8.64415Z"
    fill="currentColor" />
</svg>
  