<svg xmlns="http://www.w3.org/2000/svg" width="30" height="32" viewBox="0 0 30 32" fill="none">
  <path
    d="M29.7181 13.3151C29.568 12.2603 28.2171 11.6576 27.3166 12.411C25.3654 13.9178 22.5137 12.5617 22.5137 10.0001C22.6638 8.79469 21.6131 7.89061 20.5625 8.34265C17.8609 9.39741 15.3093 5.93177 17.2605 3.52089C18.0109 2.61681 17.4106 1.11002 16.2099 0.959335C7.50456 0.205936 0 7.28789 0 16.0273C0 24.3147 6.7541 31.0953 15.0091 31.0953C24.4649 31.0953 31.5192 22.5065 29.7181 13.3151ZM15.0091 28.0817C8.40511 28.0817 3.00182 22.6572 3.00182 16.0273C3.00182 9.84945 7.65465 4.72633 13.6583 3.97293C12.7578 7.89061 15.6095 11.5069 19.662 11.3562C20.4124 14.5205 23.7144 16.4794 27.0164 15.726C27.1665 22.3559 21.7632 28.0817 15.0091 28.0817Z"
    fill="currentColor" />
  <path
    d="M13.9582 16.4792C13.658 16.7806 13.5079 17.0819 13.5079 17.534C13.5079 18.2874 14.2584 19.0408 15.0088 19.0408C15.7593 19.0408 16.5098 18.438 16.5098 17.534C16.5098 16.1778 14.8588 15.5751 13.9582 16.4792Z"
    fill="currentColor" />
  <path
    d="M9.60592 16.1778C8.55528 15.7257 7.50464 16.4791 7.50464 17.5339C7.50464 18.438 8.25509 19.0407 9.00555 19.0407C9.75601 19.0407 10.5065 18.438 10.5065 17.5339C10.5065 16.9312 10.0562 16.3285 9.60592 16.1778Z"
    fill="currentColor" />
  <path
    d="M9.00555 13.0139C9.75601 13.0139 10.5065 12.4112 10.5065 11.5071C10.5065 10.151 8.85546 9.54827 7.95491 10.4523C7.65473 10.7537 7.50464 11.2057 7.50464 11.5071C7.50464 12.2605 8.105 13.0139 9.00555 13.0139Z"
    fill="currentColor" />
  <path
    d="M10.957 22.5065C10.6568 22.8079 10.5067 23.2599 10.5067 23.5613C10.5067 24.3147 11.2572 25.0681 12.0076 25.0681C12.7581 25.0681 13.5085 24.4654 13.5085 23.5613C13.5085 22.2052 11.8575 21.6025 10.957 22.5065Z"
    fill="currentColor" />
  <path
    d="M21.3131 20.5476C20.4125 20.3969 19.512 21.1503 19.512 22.0544C19.512 22.9585 20.2624 23.5612 21.0129 23.5612C21.7633 23.5612 22.5138 22.9585 22.5138 22.0544C22.5138 21.301 21.9134 20.6983 21.3131 20.5476Z"
    fill="currentColor" />
  <path
    d="M22.0635 5.02783L23.5644 3.52103C24.1648 2.91831 24.1648 2.01423 23.5644 1.41151C22.9641 0.808793 22.0635 0.808793 21.4631 1.41151L19.9622 2.91831C19.3619 3.52103 19.3619 4.42511 19.9622 5.02783C20.5626 5.63055 21.4631 5.63055 22.0635 5.02783Z"
    fill="currentColor" />
  <path
    d="M26.2658 8.64415L28.3671 8.19211C29.1175 8.04143 29.7179 7.13736 29.5678 6.38396C29.4177 5.63056 28.5171 5.02784 27.7667 5.17852L25.6654 5.63056C24.915 5.78124 24.3146 6.68532 24.4647 7.43872C24.7649 8.34279 25.5153 8.94551 26.2658 8.64415Z"
    fill="currentColor" />
</svg>