<svg width="30" height="30" viewBox="0 0 30 30" fill="none" xmlns="http://www.w3.org/2000/svg">
  <path fill-rule="evenodd" clip-rule="evenodd"
    d="M15 0C23.283 0 30 6.717 30 15C30 21.8468 25.4102 27.6231 19.1405 29.4205V18.3197H22.375L22.8598 14.564H19.1405V12.1719C19.1405 11.0873 19.4417 10.348 20.9972 10.348H22.9688V6.99806C22.6257 6.95251 21.4487 6.85043 20.0796 6.85043C17.2204 6.85043 15.2637 8.59497 15.2637 11.8002V14.564H12.041V18.3197H15.2637V29.9966L15.234 29.9971C15.1561 29.9986 15.0782 30 15 30C6.717 30 0 23.283 0 15C0 6.717 6.717 0 15 0ZM18.834 29.5045L18.7694 29.5215C18.7446 29.528 18.7197 29.5344 18.6948 29.5407C18.7413 29.529 18.7878 29.5169 18.834 29.5045Z"
    fill="currentColor" />
</svg>
  