<svg width="18" height="19" viewBox="0 0 18 19" fill="none" xmlns="http://www.w3.org/2000/svg">
  <g clip-path="url(#clip0_4695_19262)">
    <path
      d="M17.108 8.94391H11.118C11 8.4139 10.7049 7.93994 10.2813 7.60025C9.85769 7.26056 9.33094 7.07544 8.78796 7.07544C8.24498 7.07544 7.71823 7.26056 7.29463 7.60025C6.87104 7.93994 6.57591 8.4139 6.45796 8.94391H0.617958C0.327958 8.94391 0.0879579 9.18392 0.0979579 9.47392C0.0979579 9.76392 0.337958 9.99392 0.617958 9.99392H6.46796C6.58591 10.5239 6.88104 10.9979 7.30463 11.3376C7.72823 11.6773 8.25498 11.8624 8.79796 11.8624C9.34094 11.8624 9.86769 11.6773 10.2913 11.3376C10.7149 10.9979 11.01 10.5239 11.128 9.99392H17.118C17.408 9.99392 17.638 9.76392 17.648 9.47392V9.46391C17.6344 9.3272 17.5726 9.19979 17.4737 9.1045C17.3747 9.00921 17.2451 8.95228 17.108 8.94391ZM8.77796 10.8139C8.51095 10.8139 8.24995 10.7347 8.02794 10.5864C7.80593 10.4381 7.6329 10.2272 7.53072 9.98054C7.42854 9.73386 7.40181 9.46242 7.4539 9.20054C7.50599 8.93867 7.63456 8.69812 7.82336 8.50932C8.01217 8.32052 8.25271 8.19194 8.51459 8.13985C8.77646 8.08776 9.0479 8.1145 9.29458 8.21668C9.54126 8.31886 9.7521 8.49189 9.90044 8.71389C10.0488 8.9359 10.128 9.19691 10.128 9.46391C10.118 10.2039 9.52796 10.8039 8.77796 10.8139Z"
      fill="currentColor" />
    <path
      d="M2.4979 5.7839C3.6179 5.7839 4.5879 5.0039 4.8279 3.9139H17.0879C17.2238 3.91503 17.3549 3.8635 17.4537 3.77011C17.5524 3.67671 17.6112 3.54871 17.6177 3.41294C17.6242 3.27716 17.5778 3.14415 17.4884 3.0418C17.3989 2.93944 17.2733 2.87569 17.1379 2.8639H4.8279C4.75896 2.55726 4.63029 2.26721 4.44925 2.0103C4.26821 1.75338 4.03834 1.53465 3.77277 1.36657C3.50719 1.1985 3.21111 1.08438 2.90143 1.03073C2.59175 0.977082 2.27454 0.984954 1.9679 1.0539C1.66127 1.12284 1.37121 1.25151 1.1143 1.43255C0.857388 1.61359 0.638651 1.84346 0.470577 2.10904C0.302503 2.37461 0.188384 2.67069 0.134735 2.98037C0.0810861 3.29005 0.0889576 3.60726 0.157902 3.9139C0.407902 5.0139 1.3779 5.7839 2.4979 5.7839ZM2.4979 2.0439C2.76491 2.0439 3.02591 2.12308 3.24792 2.27142C3.46993 2.41976 3.64296 2.6306 3.74514 2.87728C3.84732 3.12396 3.87405 3.3954 3.82196 3.65727C3.76987 3.91915 3.6413 4.15969 3.4525 4.34849C3.26369 4.53729 3.02315 4.66587 2.76127 4.71796C2.4994 4.77005 2.22796 4.74331 1.98128 4.64114C1.7346 4.53896 1.52376 4.36592 1.37542 4.14392C1.22708 3.92191 1.1479 3.6609 1.1479 3.3939C1.1579 2.6439 1.7579 2.0439 2.4979 2.0439Z"
      fill="currentColor" />
    <path
      d="M15.2181 13.1838C14.1081 13.1938 13.1381 13.9538 12.8881 15.0338H0.608064C0.538877 15.0364 0.470892 15.0527 0.408102 15.0819C0.345312 15.1111 0.288979 15.1525 0.242407 15.2037C0.195835 15.2549 0.159962 15.3149 0.136892 15.3802C0.113823 15.4455 0.104023 15.5147 0.108064 15.5838C0.118064 15.8538 0.338064 16.0738 0.608064 16.0838H12.8881C12.9548 16.3913 13.0815 16.6825 13.2609 16.9409C13.4403 17.1993 13.6689 17.4198 13.9336 17.5898C14.1983 17.7597 14.494 17.8758 14.8036 17.9315C15.1132 17.9871 15.4308 17.9811 15.7381 17.9138C16.0455 17.8471 16.3367 17.7204 16.5951 17.541C16.8535 17.3616 17.074 17.133 17.244 16.8683C17.414 16.6036 17.5301 16.3079 17.5857 15.9983C17.6413 15.6887 17.6353 15.3711 17.5681 15.0638C17.4465 14.531 17.1479 14.0551 16.7212 13.7137C16.2944 13.3723 15.7646 13.1855 15.2181 13.1838ZM15.2181 16.9038C14.9511 16.9038 14.69 16.8247 14.468 16.6763C14.246 16.528 14.073 16.3171 13.9708 16.0705C13.8686 15.8238 13.8419 15.5523 13.894 15.2905C13.9461 15.0286 14.0747 14.788 14.2635 14.5992C14.4523 14.4104 14.6928 14.2819 14.9547 14.2298C15.2166 14.1777 15.488 14.2044 15.7347 14.3066C15.9814 14.4088 16.1922 14.5818 16.3405 14.8038C16.4889 15.0258 16.5681 15.2868 16.5681 15.5538C16.5581 16.3038 15.9581 16.9038 15.2181 16.9038Z"
      fill="currentColor" />
  </g>
  <defs>
    <clipPath id="clip0_4695_19262">
      <rect width="17.62" height="17.12" fill="white" transform="translate(0 0.939941)" />
    </clipPath>
  </defs>
</svg>
  