<svg viewbox="0 0 16 10" fill="none" xmlns="http://www.w3.org/2000/svg"><path d="M0.807861 0.9375C0.807861 0.419688 1.22755 0 1.74536 0H14.2454C14.7632 0 15.1829 0.419688 15.1829 0.9375C15.1829 1.45531 14.7632 1.875 14.2454 1.875H1.74536C1.22755 1.875 0.807861 1.45531 0.807861 0.9375ZM14.2454 4.0625H1.74536C1.22755 4.0625 0.807861 4.48219 0.807861 5C0.807861 5.51781 1.22755 5.9375 1.74536 5.9375H14.2454C14.7632 5.9375 15.1829 5.51781 15.1829 5C15.1829 4.48219 14.7632 4.0625 14.2454 4.0625ZM14.2454 8.125H1.74536C1.22755 8.125 0.807861 8.54469 0.807861 9.0625C0.807861 9.58031 1.22755 10 1.74536 10H14.2454C14.7632 10 15.1829 9.58031 15.1829 9.0625C15.1829 8.54469 14.7632 8.125 14.2454 8.125Z" fill="currentColor"/></svg>