<svg viewbox="0 0 15 15" fill="none" xmlns="http://www.w3.org/2000/svg"><path d="M6.51159 12.8032L6.51087 12.8026C4.64132 11.1073 3.12981 9.73375 2.07984 8.44919C1.03537 7.17135 0.5 6.04277 0.5 4.84576C0.5 2.89083 2.02332 1.37354 3.97222 1.37354C5.07774 1.37354 6.14706 1.89076 6.84281 2.7014L7.22222 3.14347L7.60164 2.7014C8.29738 1.89076 9.36671 1.37354 10.4722 1.37354C12.4211 1.37354 13.9444 2.89083 13.9444 4.84576C13.9444 6.04277 13.4091 7.17135 12.3646 8.44919C11.3146 9.73375 9.80313 11.1073 7.93357 12.8026L7.93285 12.8032L7.22222 13.4502L6.51159 12.8032Z" stroke="currentColor"/></svg>