<svg width="22" height="20" viewBox="0 0 22 20" fill="none" xmlns="http://www.w3.org/2000/svg">
  <path
    d="M9.83878 17.8414L9.83734 17.8401C7.05728 15.3191 4.83036 13.2946 3.28676 11.4061C1.75416 9.53109 1 7.91267 1 6.22071C1 3.4617 3.14533 1.32471 5.896 1.32471C7.45898 1.32471 8.97565 2.05749 9.96117 3.20575L10.72 4.0899L11.4788 3.20575C12.4644 2.05749 13.981 1.32471 15.544 1.32471C18.2947 1.32471 20.44 3.4617 20.44 6.22071C20.44 7.91267 19.6858 9.53109 18.1532 11.4061C16.6096 13.2946 14.3827 15.3191 11.6027 17.8401L11.6012 17.8414L10.72 18.6436L9.83878 17.8414Z"
    stroke="currentColor" stroke-width="2" />
</svg>
  