<svg viewBox="0 0 16 15" fill="none" xmlns="http://www.w3.org/2000/svg">
  <path
    d="M7.9802 0.410304C7.85922 0.417576 7.7411 0.466678 7.65042 0.547533L0.1735 7.31766C-0.0401817 7.51054 -0.0596453 7.88183 0.132686 8.09623C0.325016 8.31065 0.694257 8.32928 0.906977 8.13531L8.00863 1.69685L15.0932 8.13531C15.306 8.32911 15.675 8.31039 15.8673 8.09604C16.0596 7.88169 16.0402 7.51059 15.8267 7.31766L8.37821 0.547533C8.27053 0.451424 8.12387 0.400849 7.9802 0.410304ZM13.4557 6.89451V12.5668C13.4064 12.8184 13.3064 13.0442 13.16 13.1959C12.9724 13.3848 12.7278 13.4932 12.5459 13.4932H9.99868C9.99795 12.3557 10.0009 11.1221 10.0044 10.0167C10.0043 9.72925 9.7443 9.46777 9.45851 9.46773H6.53597C6.25018 9.46777 5.99016 9.72925 5.99013 10.0167C5.99611 11.1193 5.99371 12.3488 5.99013 13.4932C5.17783 13.4932 4.24549 13.4932 3.4656 13.4932C3.27547 13.4845 3.01638 13.3639 2.82879 13.1787C2.64119 12.9935 2.53783 12.7641 2.53881 12.5898V6.90607L1.44712 7.88955V12.584C1.50154 13.1206 1.74665 13.6384 2.06688 13.962C2.42361 14.3142 2.88993 14.5667 3.41443 14.591C4.4529 14.591 5.49591 14.591 6.53597 14.591C6.82177 14.591 7.08179 14.3295 7.08182 14.0421C7.08629 12.9361 7.08582 11.7082 7.08182 10.5655H8.91267C8.90925 11.7093 8.90472 12.9476 8.90699 14.0421C8.90702 14.3295 9.16704 14.591 9.45284 14.591H12.5459C13.0922 14.591 13.5743 14.3293 13.9333 13.9677C14.2923 13.6062 14.5456 13.1221 14.5474 12.5725V7.88948C14.1835 7.55782 13.8195 7.22618 13.4557 6.89451Z"
    fill="currentColor" />
</svg>