<svg width="30" height="30" viewBox="0 0 30 30" fill="none" xmlns="http://www.w3.org/2000/svg">
  <path fill-rule="evenodd" clip-rule="evenodd"
    d="M0 15C0 6.717 6.717 0 15 0C23.283 0 30 6.717 30 15C30 23.283 23.283 30 15 30C6.717 30 0 23.283 0 15ZM23.161 20.6419C23.3739 20.094 23.5197 19.468 23.5613 18.5511C23.6034 17.6326 23.6133 17.3392 23.6133 15C23.6133 12.6608 23.6034 12.3674 23.5616 11.4489C23.5197 10.532 23.3741 9.90601 23.161 9.35806C22.9449 8.78334 22.6057 8.26286 22.1677 7.83257C21.7374 7.39426 21.2167 7.05505 20.6419 6.83876C20.094 6.62613 19.468 6.48056 18.5511 6.4389C17.6326 6.39679 17.3392 6.38672 15 6.38672C12.6608 6.38672 12.3674 6.39679 11.4489 6.43867C10.532 6.48056 9.90601 6.62613 9.35806 6.83899C8.78334 7.05528 8.26263 7.39426 7.83257 7.83257C7.39426 8.26263 7.05505 8.78334 6.83876 9.35806C6.6259 9.90601 6.48033 10.532 6.43867 11.4489C6.39656 12.3674 6.38672 12.6608 6.38672 15C6.38672 17.3392 6.39656 17.6326 6.4389 18.5513C6.48056 19.468 6.62636 20.0942 6.83922 20.6419C7.05551 21.2167 7.39449 21.7374 7.83257 22.1674C8.26286 22.6057 8.78334 22.9447 9.35829 23.161C9.90601 23.3739 10.5322 23.5194 11.4489 23.5613C12.3676 23.6032 12.6608 23.6133 15.0002 23.6133C17.3394 23.6133 17.6328 23.6032 18.5513 23.5613C19.468 23.5194 20.0942 23.3739 20.6419 23.161C21.7989 22.7135 22.7135 21.7989 23.161 20.6419ZM21.7145 9.91978C21.5765 9.54579 21.3563 9.20728 21.0702 8.92941C20.7923 8.64331 20.454 8.42313 20.0798 8.28511C19.7763 8.16724 19.3204 8.02693 18.4806 7.98871C17.5722 7.94728 17.2998 7.93835 15 7.93835C12.7 7.93835 12.4276 7.94705 11.5194 7.98848C10.6796 8.02693 10.2235 8.16724 9.9202 8.28511C9.54597 8.42313 9.20746 8.64331 8.92982 8.92941C8.64372 9.20728 8.42354 9.54556 8.28529 9.91978C8.16742 10.2233 8.02711 10.6794 7.98889 11.5192C7.94746 12.4274 7.93854 12.6998 7.93854 14.9998C7.93854 17.2996 7.94746 17.572 7.98889 18.4804C8.02711 19.3202 8.16742 19.7761 8.28529 20.0796C8.42354 20.4538 8.64349 20.7921 8.9296 21.07C9.20746 21.3561 9.54575 21.5763 9.91997 21.7143C10.2235 21.8324 10.6796 21.9727 11.5194 22.0109C12.4276 22.0524 12.6997 22.0611 14.9998 22.0611C17.3 22.0611 17.5724 22.0524 18.4804 22.0109C19.3201 21.9727 19.7763 21.8324 20.0798 21.7143C20.831 21.4245 21.4247 20.8308 21.7145 20.0796C21.8324 19.7761 21.9727 19.3202 22.0111 18.4804C22.0525 17.572 22.0612 17.2996 22.0612 14.9998C22.0612 12.6998 22.0525 12.4274 22.0111 11.5192C21.9729 10.6794 21.8326 10.2233 21.7145 9.91978ZM15 19.4225C12.5571 19.4225 10.5769 17.4424 10.5769 14.9996C10.5769 12.5567 12.5571 10.5767 15 10.5767C17.4426 10.5767 19.4229 12.5567 19.4229 14.9996C19.4229 17.4424 17.4426 19.4225 15 19.4225ZM19.5978 11.4354C19.0269 11.4354 18.5641 10.9726 18.5641 10.4018C18.5641 9.83098 19.0269 9.36818 19.5978 9.36818C20.1686 9.36818 20.6314 9.83098 20.6314 10.4018C20.6312 10.9726 20.1686 11.4354 19.5978 11.4354ZM17.8711 15C17.8711 16.5857 16.5857 17.8711 15 17.8711C13.4143 17.8711 12.1289 16.5857 12.1289 15C12.1289 13.4143 13.4143 12.1289 15 12.1289C16.5857 12.1289 17.8711 13.4143 17.8711 15Z"
    fill="currentColor" />
</svg>
  