<svg viewBox="0 0 12 13" fill="none" xmlns="http://www.w3.org/2000/svg">
  <path fill-rule="evenodd" clip-rule="evenodd"
    d="M1.25037 8.09553C1.25037 8.19694 1.2079 8.29419 1.13232 8.36589C1.05675 8.4376 0.954237 8.47788 0.847351 8.47788C0.740464 8.47788 0.637956 8.4376 0.562376 8.36589C0.486796 8.29419 0.444336 8.19694 0.444336 8.09553V7.32016C0.445306 6.87359 0.595971 6.43888 0.874545 6.07891C1.15312 5.71894 1.54516 5.45236 1.99397 5.31772V3.74776C1.99397 2.75379 2.41017 1.80053 3.15101 1.09769C3.89184 0.394852 4.89663 0 5.94434 0C6.99204 0 7.99683 0.394852 8.73767 1.09769C9.4785 1.80053 9.8947 2.75379 9.8947 3.74776V5.31772C10.3435 5.45236 10.7356 5.71894 11.0141 6.07891C11.2927 6.43888 11.4434 6.87359 11.4443 7.32016V9.39019C11.4443 9.4404 11.4339 9.49012 11.4137 9.53651C11.3934 9.58289 11.3637 9.62504 11.3263 9.66055C11.2889 9.69605 11.2444 9.72421 11.1955 9.74343C11.1467 9.76264 11.0942 9.77253 11.0413 9.77253C10.9884 9.77253 10.936 9.76264 10.8871 9.74343C10.8382 9.72421 10.7938 9.69605 10.7563 9.66055C10.7189 9.62504 10.6892 9.58289 10.669 9.53651C10.6487 9.49012 10.6383 9.4404 10.6383 9.39019V7.32016C10.6376 6.96648 10.4892 6.62749 10.2255 6.37742C9.96192 6.12735 9.60459 5.98657 9.23179 5.98592H2.65688C2.28409 5.98657 1.92675 6.12735 1.66313 6.37742C1.39951 6.62749 1.25109 6.96648 1.25037 7.32016V8.09553ZM6.34735 9.58996C6.66448 9.49831 6.93635 9.30165 7.11347 9.03579C7.29058 8.76993 7.36115 8.45256 7.31232 8.14148C7.26349 7.83041 7.0985 7.54632 6.84742 7.34096C6.59633 7.1356 6.27585 7.02263 5.94434 7.02263C5.61282 7.02263 5.29234 7.1356 5.04126 7.34096C4.79017 7.54632 4.62519 7.83041 4.57635 8.14148C4.52752 8.45256 4.59809 8.76993 4.7752 9.03579C4.95232 9.30165 5.2242 9.49831 5.54132 9.58996V10.8189C5.54132 10.9203 5.58378 11.0175 5.65936 11.0892C5.73494 11.161 5.83745 11.2012 5.94434 11.2012C6.05122 11.2012 6.15373 11.161 6.22931 11.0892C6.30489 11.0175 6.34735 10.9203 6.34735 10.8189V9.58996ZM6.35314 7.94546C6.25841 7.85572 6.13382 7.79993 6.00059 7.78758C5.86737 7.77523 5.73375 7.80709 5.62251 7.87774C5.51127 7.94838 5.42929 8.05343 5.39054 8.17499C5.35179 8.29655 5.35868 8.42709 5.41001 8.54438C5.46135 8.66166 5.55397 8.75843 5.67208 8.81819C5.7902 8.87795 5.9265 8.897 6.05776 8.87211C6.18903 8.84721 6.30713 8.7799 6.39194 8.68165C6.47676 8.5834 6.52304 8.46029 6.5229 8.33329C6.523 8.26125 6.5081 8.1899 6.47904 8.12334C6.44999 8.05678 6.40735 7.99633 6.35359 7.94546H6.35314ZM2.8 5.22109H9.08806V3.74776C9.07656 2.96386 8.74026 2.21577 8.15189 1.6653C7.56352 1.11482 6.77038 0.806204 5.94403 0.806204C5.11768 0.806204 4.32454 1.11482 3.73618 1.6653C3.14781 2.21577 2.8115 2.96386 2.8 3.74776V5.22109ZM10.6383 10.3821V10.9009C10.6376 11.2546 10.4892 11.5936 10.2255 11.8437C9.96193 12.0938 9.6046 12.2346 9.23179 12.2353H2.65688C2.28407 12.2346 1.92674 12.0938 1.66312 11.8437C1.39951 11.5936 1.25109 11.2546 1.25037 10.9009V9.17222C1.25037 9.07082 1.2079 8.97357 1.13232 8.90186C1.05675 8.83016 0.954237 8.78988 0.847351 8.78988C0.740464 8.78988 0.637956 8.83016 0.562376 8.90186C0.486796 8.97357 0.444336 9.07082 0.444336 9.17222V10.9009C0.445463 11.4573 0.678931 11.9906 1.09362 12.384C1.50831 12.7774 2.07042 12.9989 2.65688 13H9.23179C9.81825 12.9989 10.3804 12.7774 10.7951 12.384C11.2097 11.9906 11.4432 11.4573 11.4443 10.9009V10.3821C11.4443 10.3319 11.4339 10.2822 11.4137 10.2358C11.3934 10.1894 11.3637 10.1472 11.3263 10.1117C11.2889 10.0762 11.2444 10.0481 11.1955 10.0288C11.1467 10.0096 11.0942 9.99974 11.0413 9.99974C10.9884 9.99974 10.936 10.0096 10.8871 10.0288C10.8382 10.0481 10.7938 10.0762 10.7563 10.1117C10.7189 10.1472 10.6892 10.1894 10.669 10.2358C10.6487 10.2822 10.6383 10.3319 10.6383 10.3821Z"
    fill="white" />
</svg>