<svg xmlns="http://www.w3.org/2000/svg" fill="none" viewbox="13 13 21 21"><path d="M25.0742 13C22.7862 13 20.4978 13.8703 18.7577 15.6105C15.4988 18.8695 15.2938 24.0493 18.1385 27.5525L13.2842 32.4088C13.1955 32.494 13.1246 32.596 13.0759 32.7089C13.0271 32.8217 13.0013 32.9432 13 33.0662C12.9988 33.1892 13.0221 33.3111 13.0686 33.425C13.1151 33.5389 13.1838 33.6423 13.2707 33.7292C13.3577 33.8162 13.4611 33.8849 13.575 33.9314C13.6888 33.9779 13.8108 34.0012 13.9338 34C14.0567 33.9987 14.1782 33.9729 14.2911 33.9241C14.404 33.8753 14.506 33.8045 14.5912 33.7158L19.4455 28.8596C22.9485 31.7068 28.1291 31.5021 31.389 28.2421C34.8691 24.7619 34.8709 19.0907 31.3908 15.6105C29.6507 13.8703 27.3622 13 25.0742 13ZM25.0742 14.836C26.8853 14.836 28.6969 15.5306 30.0838 16.9175C32.8575 19.6913 32.8557 24.1613 30.0819 26.9351C27.3344 29.6827 22.9266 29.7049 20.1477 27.0091C20.1028 26.9515 20.0513 26.8994 19.9942 26.8539C19.993 26.8533 19.9918 26.8526 19.9906 26.852C17.2967 24.0729 17.3177 19.6645 20.0646 16.9175C21.4515 15.5305 23.2632 14.836 25.0742 14.836Z" fill="currentColor"/></svg>