<svg viewBox="0 0 50 22" fill="none" xmlns="http://www.w3.org/2000/svg">
  <path fill-rule="evenodd" clip-rule="evenodd"
    d="M46.2735 0.619141H24.4457C23.5584 0.619141 22.8485 0.974065 22.1387 1.32899L33.3188 10.557C34.3836 11.4443 36.3357 11.6218 37.4004 10.557L48.5806 1.32899C47.8707 0.974065 47.1609 0.619141 46.2735 0.619141ZM49.9998 4.34521C49.9998 3.81282 49.9998 3.28043 49.6448 2.74805L38.4647 11.9761C36.6901 13.3958 33.8507 13.3958 32.0761 11.9761L21.0734 2.74805C20.7185 3.28043 20.541 3.81282 20.541 4.34521V17.6549C20.541 18.3647 20.7185 18.8971 21.0734 19.4295L28.1719 12.331C29.0592 11.4437 30.3014 12.6859 29.4141 13.5732L22.3156 20.6717C22.848 21.2041 23.5579 21.3816 24.4452 21.3816H46.273C47.1604 21.3816 47.8702 21.2041 48.4026 20.6717L41.3041 13.5732C40.4168 12.6859 41.659 11.4437 42.3689 12.331L49.6448 19.4295C49.8223 18.8971 49.9998 18.3647 49.9998 17.6549V4.34521ZM8.29634 16.5898C7.40903 16.5898 7.40903 18.187 8.29634 18.187H17.5244C18.5892 18.187 18.5892 16.5898 17.5244 16.5898H8.29634ZM9.18335 13.574C8.11857 13.574 8.11857 12.1543 9.18335 12.1543H17.5241C18.5888 12.1543 18.5888 13.574 17.5241 13.574H9.18335ZM5.98965 13.574C7.05443 13.574 7.05443 12.1543 5.98965 12.1543H3.8601C2.79533 12.1543 2.79533 13.574 3.8601 13.574H5.98965ZM0.665484 9.84743C-0.221828 9.84743 -0.221828 8.42773 0.665484 8.42773H17.5244C18.5892 8.42773 18.5892 9.84743 17.5244 9.84743H0.665484ZM7.40893 3.81445C6.34416 3.81445 6.34416 5.41161 7.40893 5.41161H9.36102C10.2483 5.41161 10.2483 3.81445 9.36102 3.81445H7.40893ZM17.5245 3.81445C18.5893 3.81445 18.5893 5.41161 17.5245 5.41161H12.0232C10.9584 5.41161 10.9584 3.81445 12.0232 3.81445H17.5245Z"
    fill="currentColor" />
</svg>