<svg viewBox="0 0 20 17" fill="none" xmlns="http://www.w3.org/2000/svg">
  <path
    d="M1.85635 16.0151H9.99898C9.99925 16.0151 9.99954 16.0152 9.99982 16.0152C9.99974 16.0152 9.99989 16.0152 9.99982 16.0152C9.99989 16.0152 10.0002 16.0152 10.0003 16.0152C10.0006 16.0152 10.0009 16.0151 10.0011 16.0151H18.1437C18.8916 16.0151 19.5 15.4067 19.5 14.6587V4.67947C19.5 4.08815 19.1141 3.59036 18.5828 3.41034V2.44793C18.5828 2.37069 18.552 2.29674 18.4969 2.24243C18.442 2.18825 18.3631 2.16421 18.2903 2.15933L17.8284 2.16568C17.7607 2.16653 17.6928 2.16553 17.6249 2.16592V1.2734C17.6249 1.19604 17.5939 1.12197 17.5389 1.06779C17.4837 1.0136 17.4073 0.981877 17.3319 0.984806L16.9232 0.991029C14.453 1.02904 12.0615 1.81735 10.0001 3.26976C7.93864 1.81741 5.54702 1.02904 3.07676 0.991029L2.66821 0.984806C2.5945 0.987124 2.5164 1.01348 2.46125 1.06779C2.40621 1.12197 2.37522 1.19604 2.37522 1.2734V2.16592C2.30729 2.16553 2.23934 2.16656 2.17155 2.16568L1.70979 2.15933C1.63316 2.16299 1.55823 2.18825 1.50308 2.24243C1.44804 2.29674 1.41717 2.37069 1.41717 2.44793V3.41037C0.885901 3.59036 0.5 4.08815 0.5 4.67947V14.6587C0.5 15.4067 1.10844 16.0151 1.85635 16.0151ZM18.4968 14.7575C18.5518 14.7032 18.5828 14.6291 18.5828 14.5518V4.04211C18.7877 4.18025 18.9228 4.41436 18.9228 4.67947V14.6587C18.9228 15.0884 18.5733 15.4379 18.1437 15.4379H11.1047C12.8158 14.6205 14.7292 14.7004 16.7458 14.7882C17.25 14.8101 17.7716 14.8326 18.2898 14.8404C18.3716 14.8396 18.4418 14.8118 18.4968 14.7575ZM17.5386 13.5831C17.5939 13.5288 17.6249 13.4546 17.6249 13.3772V2.74321C17.6955 2.74275 17.7657 2.74385 17.8363 2.74287L18.0056 2.74056V14.2574C17.5913 14.247 17.1755 14.229 16.7708 14.2114C15.6971 14.1648 14.6518 14.1213 13.6402 14.2067C14.8301 13.8299 16.072 13.6447 17.3314 13.6658C17.4099 13.6692 17.4836 13.6372 17.5386 13.5831ZM10.2887 3.77176C12.2647 2.36684 14.5612 1.60471 16.932 1.56823L17.0477 1.56652V13.0871C14.6533 13.1042 12.3229 13.827 10.2887 15.1859V3.77176ZM2.95241 1.56652L3.06797 1.56823C5.43882 1.60471 7.73534 2.36684 9.71146 3.77176V15.186C7.67717 13.8271 5.34688 13.104 2.95241 13.0871V1.56652ZM1.99436 2.74056L2.16374 2.74287C2.23435 2.74385 2.30461 2.74275 2.37522 2.74324V13.3772C2.37522 13.4546 2.40621 13.5288 2.46149 13.5831C2.51665 13.6372 2.58986 13.6682 2.66869 13.6658C4.00837 13.6428 6.01472 14.1338 6.33505 14.2053C5.33113 14.1227 4.29426 14.1652 3.22917 14.2114C2.82453 14.229 2.40865 14.247 1.99436 14.2574V2.74056ZM1.0772 4.67947C1.0772 4.41436 1.21228 4.18025 1.41717 4.04211V14.5518C1.41717 14.6291 1.44816 14.7032 1.5032 14.7575C1.55823 14.8116 1.63023 14.8407 1.71016 14.8404C2.22842 14.8326 2.74997 14.8101 3.25419 14.7882C5.27001 14.7004 7.18364 14.6205 8.89514 15.4379H1.85635C1.42669 15.4379 1.0772 15.0884 1.0772 14.6587V4.67947Z"
    fill="currentColor" />
</svg>