<svg width="70" height="54" viewBox="0 0 70 54" fill="none" xmlns="http://www.w3.org/2000/svg">
  <path
    d="M54.3133 4.19669C42.0375 2.15677 29.5091 2.15677 17.2333 4.19669C10.2133 5.66669 5.83331 10.1967 5.83331 16.1067V37.1067C5.83331 43.1067 10.2133 47.5767 17.3533 49.1067C23.4598 50.1348 29.6409 50.6566 35.8333 50.6667C42.0448 50.6653 48.2456 50.1536 54.3733 49.1367C61.3333 47.8167 65.8333 43.1367 65.8333 37.1367V16.1367C65.8333 10.1667 61.3333 5.48669 54.3133 4.19669ZM45.6133 28.0167L30.6133 37.0167C30.3787 37.1597 30.108 37.2325 29.8333 37.2267C29.5729 37.2246 29.3163 37.163 29.0833 37.0467C28.8474 36.9035 28.6537 36.7004 28.522 36.458C28.3902 36.2155 28.3251 35.9425 28.3333 35.6667V17.6667C28.3356 17.401 28.4056 17.1403 28.5369 16.9093C28.6682 16.6783 28.8562 16.4846 29.0833 16.3467C29.3186 16.2206 29.5814 16.1547 29.8483 16.1547C30.1152 16.1547 30.378 16.2206 30.6133 16.3467L45.6133 25.3467C45.8301 25.485 46.0086 25.6756 46.1322 25.9011C46.2558 26.1266 46.3206 26.3796 46.3206 26.6367C46.3206 26.8938 46.2558 27.1468 46.1322 27.3723C46.0086 27.5978 45.8301 27.7884 45.6133 27.9267V28.0167Z"
    fill="currentColor" />
</svg>