<svg viewBox="0 0 51 61" fill="none" xmlns="http://www.w3.org/2000/svg">
  <path
    d="M50.4077 49.2225L45.8388 18.0426C45.7855 17.6894 45.607 17.3675 45.3362 17.1361C45.0654 16.9047 44.7205 16.7795 44.365 16.7836H36.259V12.7842C36.3824 11.284 36.1949 9.77441 35.7084 8.35071C35.2219 6.92701 34.4469 5.62018 33.4324 4.51277C32.4178 3.40535 31.1858 2.52142 29.8142 1.91679C28.4425 1.31217 26.961 1 25.4632 1C23.9654 1 22.4838 1.31217 21.1122 1.91679C19.7405 2.52142 18.5085 3.40535 17.4939 4.51277C16.4794 5.62018 15.7044 6.92701 15.2179 8.35071C14.7314 9.77441 14.5439 11.284 14.6674 12.7842V16.7095H6.56129C6.20585 16.7055 5.86094 16.8307 5.5901 17.062C5.31927 17.2934 5.14075 17.6153 5.08746 17.9685L0.592279 49.2225C0.40235 50.5878 0.506365 51.9782 0.897289 53.2996C1.28821 54.621 1.95693 55.8426 2.85821 56.8819C3.75949 57.9211 4.87232 58.7537 6.12143 59.3233C7.37054 59.8929 8.7268 60.1863 10.0985 60.1837H40.9015C42.2732 60.1863 43.6295 59.8929 44.8786 59.3233C46.1277 58.7537 47.2405 57.9211 48.1418 56.8819C49.0431 55.8426 49.7118 54.621 50.1027 53.2996C50.4936 51.9782 50.5977 50.5878 50.4077 49.2225ZM17.615 12.7842C17.5088 11.6842 17.6328 10.574 17.9789 9.52498C18.3249 8.47594 18.8855 7.51126 19.6246 6.69291C20.3637 5.87456 21.265 5.22062 22.2705 4.77312C23.276 4.32562 24.3635 4.09445 25.4632 4.09445C26.5628 4.09445 27.6503 4.32562 28.6558 4.77312C29.6613 5.22062 30.5626 5.87456 31.3017 6.69291C32.0408 7.51126 32.6014 8.47594 32.9475 9.52498C33.2935 10.574 33.4175 11.6842 33.3113 12.7842V16.7095H17.615V12.7842ZM45.9125 54.9253C45.2897 55.6464 44.5199 56.2246 43.6554 56.6207C42.7908 57.0168 41.8517 57.2216 40.9015 57.2212H10.0985C9.14691 57.2206 8.2066 57.0142 7.34142 56.6161C6.47624 56.2179 5.70644 55.6373 5.08429 54.9137C4.46214 54.19 4.00221 53.3403 3.73574 52.4222C3.46927 51.5041 3.40249 50.5392 3.53994 49.5928L7.88774 19.672H14.741V33.2993C14.741 33.6921 14.8963 34.0689 15.1727 34.3467C15.4491 34.6245 15.824 34.7805 16.2149 34.7805C16.6058 34.7805 16.9806 34.6245 17.257 34.3467C17.5334 34.0689 17.6887 33.6921 17.6887 33.2993V19.746H33.385V33.2993C33.385 33.6921 33.5403 34.0689 33.8167 34.3467C34.0931 34.6245 34.4679 34.7805 34.8588 34.7805C35.2497 34.7805 35.6246 34.6245 35.901 34.3467C36.1774 34.0689 36.3326 33.6921 36.3326 33.2993V19.746H43.186L47.4601 49.5928C47.5988 50.5412 47.5324 51.5085 47.2653 52.4288C46.9982 53.349 46.5368 54.2006 45.9125 54.9253Z"
    fill="currentColor" stroke="currentColor" stroke-width="0.5" />
</svg>