<svg width="20" height="21" viewBox="0 0 20 21" fill="none" xmlns="http://www.w3.org/2000/svg">
  <path
    d="M7.08514 0.0186768C6.80149 0.0186768 6.52945 0.131358 6.32888 0.331931C6.12831 0.532505 6.01562 0.804541 6.01562 1.0882C6.01562 1.37185 6.12831 1.64389 6.32888 1.84446C6.52945 2.04503 6.80149 2.15771 7.08514 2.15771H12.914C13.1977 2.15771 13.4697 2.04503 13.6703 1.84446C13.8709 1.64389 13.9835 1.37185 13.9835 1.0882C13.9835 0.804541 13.8709 0.532505 13.6703 0.331931C13.4697 0.131358 13.1977 0.0186768 12.914 0.0186768H7.08514Z"
    fill="currentColor" />
  <path
    d="M18.9305 3.1203H1.06952C0.785865 3.1203 0.513828 3.23298 0.313255 3.43356C0.112681 3.63413 0 3.90617 0 4.18982C0 4.47347 0.112681 4.74551 0.313255 4.94608C0.513828 5.14666 0.785865 5.25934 1.06952 5.25934H2.13904L3.28877 18.0401C3.35598 18.8439 3.72347 19.5929 4.31807 20.1379C4.91266 20.683 5.69073 20.9841 6.49733 20.9813H13.5027C14.3093 20.9841 15.0873 20.683 15.6819 20.1379C16.2765 19.5929 16.644 18.8439 16.7112 18.0401L17.861 5.25934H18.9305C19.2141 5.25934 19.4862 5.14666 19.6867 4.94608C19.8873 4.74551 20 4.47347 20 4.18982C20 3.90617 19.8873 3.63413 19.6867 3.43356C19.4862 3.23298 19.2141 3.1203 18.9305 3.1203ZM14.5722 17.8529C14.5519 18.1224 14.4304 18.3743 14.2319 18.5578C14.0335 18.7414 13.773 18.843 13.5027 18.8422H6.49733C6.22704 18.843 5.96649 18.7414 5.76807 18.5578C5.56965 18.3743 5.44808 18.1224 5.42781 17.8529L4.30481 5.25934H15.6952L14.5722 17.8529Z"
    fill="currentColor" />
</svg>
  