<svg viewBox="0 0 20 22" fill="none" xmlns="http://www.w3.org/2000/svg" viewBox="0 0 20 22">
  <path
    d="M7.08514 0.518677C6.80149 0.518677 6.52945 0.631358 6.32888 0.831931C6.12831 1.03251 6.01562 1.30454 6.01562 1.5882C6.01562 1.87185 6.12831 2.14389 6.32888 2.34446C6.52945 2.54503 6.80149 2.65771 7.08514 2.65771H12.914C13.1977 2.65771 13.4697 2.54503 13.6703 2.34446C13.8709 2.14389 13.9835 1.87185 13.9835 1.5882C13.9835 1.30454 13.8709 1.03251 13.6703 0.831931C13.4697 0.631358 13.1977 0.518677 12.914 0.518677H7.08514Z"
    fill="currentColor" />
  <path
    d="M18.9305 3.6203H1.06952C0.785865 3.6203 0.513828 3.73298 0.313255 3.93356C0.112681 4.13413 0 4.40617 0 4.68982C0 4.97347 0.112681 5.24551 0.313255 5.44608C0.513828 5.64666 0.785865 5.75934 1.06952 5.75934H2.13904L3.28877 18.5401C3.35598 19.3439 3.72347 20.0929 4.31807 20.6379C4.91266 21.183 5.69073 21.4841 6.49733 21.4813H13.5027C14.3093 21.4841 15.0873 21.183 15.6819 20.6379C16.2765 20.0929 16.644 19.3439 16.7112 18.5401L17.861 5.75934H18.9305C19.2141 5.75934 19.4862 5.64666 19.6867 5.44608C19.8873 5.24551 20 4.97347 20 4.68982C20 4.40617 19.8873 4.13413 19.6867 3.93356C19.4862 3.73298 19.2141 3.6203 18.9305 3.6203ZM14.5722 18.3529C14.5519 18.6224 14.4304 18.8743 14.2319 19.0578C14.0335 19.2414 13.773 19.343 13.5027 19.3422H6.49733C6.22704 19.343 5.96649 19.2414 5.76807 19.0578C5.56965 18.8743 5.44808 18.6224 5.42781 18.3529L4.30481 5.75934H15.6952L14.5722 18.3529Z"
    fill="currentColor" />
</svg>