<svg viewbox="0 0 28 28" fill="none" xmlns="http://www.w3.org/2000/svg"><path fill-rule="evenodd" clip-rule="evenodd" d="M10.3471 8.03472H5.95181C6.30683 7.3073 7.0529 6.81741 7.90091 6.81741H14.8683C16.6578 6.81741 18.061 8.35402 17.899 10.1362L17.0941 18.9905H12.1122C11.8303 17.6014 10.6021 16.5559 9.12984 16.5559C7.68216 16.5559 6.47057 17.5667 6.16238 18.9211C5.19387 18.662 4.52236 17.7128 4.6651 16.6661L5.1669 12.9863C5.17067 12.9586 5.17252 12.9311 5.17255 12.904H7.91253C8.24867 12.904 8.52118 12.6314 8.52118 12.2953C8.52118 11.9592 8.24867 11.6867 7.91253 11.6867H0.608656C0.272504 11.6867 0 11.9592 0 12.2953C0 12.6314 0.272504 12.904 0.608656 12.904H3.94953L3.45895 16.5016C3.21727 18.274 4.43956 19.8709 6.13831 20.161C6.4019 21.5733 7.64102 22.6425 9.12984 22.6425C10.6021 22.6425 11.8303 21.5969 12.1122 20.2078H17.65L17.6647 20.2077L17.6795 20.2078H18.9292C19.2112 21.5969 20.4393 22.6425 21.9116 22.6425C23.3839 22.6425 24.612 21.5969 24.894 20.2078H25.5654C26.91 20.2078 28 19.1179 28 17.7732V16.0949C28 15.4492 27.7435 14.83 27.2869 14.3734L26.6075 13.694L24.3714 11.3921C23.7983 10.8022 23.011 10.4693 22.1886 10.4693H19.0911L19.1113 10.2464C19.3381 7.75135 17.3736 5.6001 14.8683 5.6001H7.90091C6.37854 5.6001 5.0666 6.61126 4.65118 8.03472H3.04328C2.70713 8.03472 2.43462 8.30723 2.43462 8.64338C2.43462 8.97953 2.70713 9.25203 3.04328 9.25203H10.3471C10.6833 9.25203 10.9558 8.97953 10.9558 8.64338C10.9558 8.30723 10.6833 8.03472 10.3471 8.03472ZM20.0861 19.6404C20.087 19.6268 20.0875 19.613 20.0875 19.5992C20.0875 19.5853 20.087 19.5716 20.0861 19.5579C20.108 18.5686 20.917 17.7732 21.9116 17.7732C22.92 17.7732 23.7376 18.5908 23.7376 19.5992C23.7376 20.6076 22.92 21.4251 21.9116 21.4251C20.917 21.4251 20.108 20.6298 20.0861 19.6404ZM18.9292 18.9905H18.349L18.7711 14.5645L25.9163 14.7243L26.4261 15.2341C26.6544 15.4624 26.7827 15.7721 26.7827 16.0949V17.7732C26.7827 18.4455 26.2377 18.9905 25.5654 18.9905H24.894C24.612 17.6014 23.3839 16.5559 21.9116 16.5559C20.4393 16.5559 19.2112 17.6014 18.9292 18.9905ZM10.9547 19.5992C10.9547 19.5884 10.955 19.5778 10.9555 19.5672C10.9384 18.5735 10.1276 17.7732 9.12984 17.7732C8.12138 17.7732 7.30387 18.5908 7.30387 19.5992C7.30387 20.6076 8.12138 21.4251 9.12984 21.4251C10.1276 21.4251 10.9384 20.6248 10.9555 19.6312C10.955 19.6206 10.9547 19.6099 10.9547 19.5992ZM18.8832 13.3494L24.7021 13.4795L23.4983 12.2403C23.1544 11.8864 22.6819 11.6867 22.1886 11.6867H19.0322L18.8832 13.3494Z" fill="currentColor"/></svg>