<svg viewBox="0 0 21 26" fill="none" xmlns="http://www.w3.org/2000/svg">
  <path
    d="M20.5 24.1112C20.5 24.7248 20.0025 25.2223 19.3889 25.2223C18.7752 25.2223 18.2778 24.7248 18.2778 24.1112C18.2778 19.8156 14.7955 16.3334 10.5 16.3334C6.20445 16.3334 2.72222 19.8156 2.72222 24.1112C2.72222 24.7248 2.22476 25.2223 1.61111 25.2223C0.997461 25.2223 0.5 24.7248 0.5 24.1112C0.5 18.5883 4.97715 14.1112 10.5 14.1112C16.0228 14.1112 20.5 18.5883 20.5 24.1112ZM10.5 13.0001C7.12493 13.0001 4.38889 10.264 4.38889 6.88894C4.38889 3.51387 7.12493 0.777832 10.5 0.777832C13.8751 0.777832 16.6111 3.51387 16.6111 6.88894C16.6111 10.264 13.8751 13.0001 10.5 13.0001ZM10.5 10.7778C12.6478 10.7778 14.3889 9.03672 14.3889 6.88894C14.3889 4.74117 12.6478 3.00005 10.5 3.00005C8.35223 3.00005 6.61111 4.74117 6.61111 6.88894C6.61111 9.03672 8.35223 10.7778 10.5 10.7778Z"
    fill="currentColor" />
</svg>