<svg width="24" height="24" viewBox="0 0 24 24" fill="none" xmlns="http://www.w3.org/2000/svg">
  <path fill-rule="evenodd" clip-rule="evenodd"
    d="M0.907262 11.712C0.907262 5.52969 5.97503 0.5 12.2042 0.5C18.4328 0.5 23.5 5.52969 23.5 11.712C23.5 17.8936 18.4328 22.9228 12.2042 22.9227C10.3361 22.9227 8.49032 22.4621 6.85717 21.5895L0.889116 23.486C0.859395 23.4955 0.828928 23.5 0.798684 23.5C0.719752 23.5 0.642463 23.4687 0.585486 23.4105C0.506554 23.3301 0.479671 23.2121 0.515814 23.1054L2.4561 17.3819C1.44239 15.6689 0.907262 13.7116 0.907262 11.712ZM7.28036 19.1193C8.74385 20.0797 10.4464 20.5872 12.2042 20.5872C17.1376 20.5872 21.1512 16.6058 21.1511 11.712C21.1511 6.81754 17.1374 2.83555 12.2041 2.83555C7.27013 2.83555 3.25603 6.81754 3.25603 11.712C3.25603 13.5932 3.84514 15.3924 4.9596 16.9151C5.0171 16.9937 5.0327 17.0953 5.00149 17.1875L4.03638 20.0348L7.02601 19.0845C7.05566 19.0751 7.08613 19.0704 7.11652 19.0704C7.17402 19.0704 7.23115 19.087 7.28036 19.1193ZM17.4633 13.6886C17.4955 13.7043 17.5151 13.714 17.5194 13.716L17.5195 13.7161C17.7391 13.8215 17.9125 13.9048 18.0132 14.0702C18.1601 14.3136 18.1019 14.9842 17.881 15.5979C17.6006 16.3772 16.3679 17.0159 15.8069 17.0657L15.7246 17.0735C15.5949 17.0863 15.4479 17.1007 15.2642 17.1007H15.2641C14.8269 17.1007 14.058 17.0257 12.4342 16.3771C10.7475 15.7033 9.08365 14.2588 7.74897 12.3096C7.7451 12.3039 7.74142 12.2986 7.73795 12.2935C7.72076 12.2683 7.70854 12.2504 7.70133 12.2408C7.35282 11.7814 6.5411 10.5737 6.5411 9.29459C6.5411 7.87336 7.22139 7.06523 7.62352 6.8117C8.00272 6.57267 8.86037 6.45976 9.01786 6.45311C9.11126 6.44918 9.12113 6.44808 9.13102 6.44778C9.13482 6.44766 9.13863 6.44766 9.14719 6.44766C9.47958 6.44766 9.71876 6.64936 9.89977 7.08255C9.91785 7.12566 9.97241 7.25694 10.0454 7.43267C10.2765 7.98874 10.6926 8.98984 10.7227 9.0501C10.771 9.14486 10.9205 9.43834 10.7455 9.7861L10.7079 9.8616L10.7077 9.86201C10.6361 10.0072 10.5743 10.1325 10.4355 10.294C10.3909 10.3455 10.3455 10.4002 10.3002 10.4547L10.2999 10.4551C10.2042 10.5702 10.1054 10.6892 10.0142 10.7794C9.98296 10.8107 9.92247 10.8714 9.9159 10.8955C9.91593 10.8955 9.91595 10.8957 9.91601 10.8961C9.91658 10.8997 9.91983 10.9206 9.94398 10.9617C10.1312 11.2786 11.4965 13.1575 13.2952 13.9388C13.3737 13.9729 13.6332 14.0798 13.6483 14.0798C13.665 14.0798 13.6929 14.0519 13.7134 14.0285C13.87 13.8514 14.3771 13.2587 14.5446 13.0098C14.6927 12.7881 14.8829 12.6753 15.1094 12.6753C15.2479 12.6753 15.3783 12.7179 15.4999 12.7616C15.769 12.8585 17.1629 13.5414 17.4633 13.6886Z"
    fill="currentColor" />
</svg>
  