<svg width="16" height="16" viewBox="0 0 16 16" fill="none" xmlns="http://www.w3.org/2000/svg">
  <path
    d="M9.19067 8L15.7534 1.43726C15.9113 1.27937 16 1.06522 16 0.841929C16 0.618636 15.9113 0.404488 15.7534 0.246595C15.5955 0.088703 15.3814 1.05116e-08 15.1581 8.84788e-09C14.9348 7.18422e-09 14.7206 0.088703 14.5627 0.246595L8 6.80933L1.43726 0.246595C1.27937 0.088703 1.06522 0 0.841929 0C0.618636 0 0.404488 0.088703 0.246595 0.246595C0.088703 0.404488 0 0.618636 0 0.841929C0 1.06522 0.088703 1.27937 0.246595 1.43726L6.80933 8L0.246595 14.5627C0.088703 14.7206 7.18422e-09 14.9348 8.84788e-09 15.1581C1.05116e-08 15.3814 0.088703 15.5955 0.246595 15.7534C0.404488 15.9113 0.618636 16 0.841929 16C1.06522 16 1.27937 15.9113 1.43726 15.7534L8 9.19067L14.5627 15.7534C14.6409 15.8316 14.7337 15.8936 14.8359 15.9359C14.938 15.9782 15.0475 16 15.1581 16C15.2686 16 15.3781 15.9782 15.4803 15.9359C15.5824 15.8936 15.6752 15.8316 15.7534 15.7534C15.8316 15.6752 15.8936 15.5824 15.9359 15.4803C15.9782 15.3781 16 15.2686 16 15.1581C16 15.0475 15.9782 14.938 15.9359 14.8359C15.8936 14.7337 15.8316 14.6409 15.7534 14.5627L9.19067 8Z"
    fill="currentColor" />
</svg>
  