<svg width="21" height="20" viewBox="0 0 21 20" fill="none" xmlns="http://www.w3.org/2000/svg">
  <path fill-rule="evenodd" clip-rule="evenodd"
    d="M0.5 7.839C0.5 3.51893 4.01893 0 8.339 0C12.6591 0 16.1781 3.51885 16.1781 7.83892C16.1781 9.71753 15.511 11.4428 14.4036 12.795L20.2598 18.6512C20.3349 18.7235 20.3948 18.81 20.4361 18.9057C20.4773 19.0014 20.4991 19.1044 20.5 19.2086C20.501 19.3128 20.4812 19.4161 20.4418 19.5126C20.4024 19.6091 20.3441 19.6967 20.2705 19.7704C20.1968 19.8441 20.1091 19.9023 20.0127 19.9417C19.9162 19.9812 19.8129 20.001 19.7087 20C19.6045 19.999 19.5015 19.9772 19.4058 19.936C19.3101 19.8947 19.2236 19.8348 19.1513 19.7598L13.295 13.9035C11.9429 15.0109 10.2176 15.678 8.339 15.678C4.01893 15.678 0.5 12.1591 0.5 7.839ZM14.6102 7.839C14.6102 4.36624 11.8118 1.5678 8.339 1.5678C4.86624 1.5678 2.0678 4.36624 2.0678 7.839C2.0678 11.3118 4.86624 14.1102 8.339 14.1102C11.8118 14.1102 14.6102 11.3118 14.6102 7.839ZM7.77625 4.93044C7.92092 4.78146 8.11879 4.69597 8.32643 4.69272C8.43131 4.69109 8.53546 4.71051 8.63269 4.74985C8.72992 4.78919 8.81827 4.84763 8.89251 4.92173C8.96675 4.99583 9.02536 5.08407 9.06488 5.18123C9.1044 5.27838 9.12402 5.38249 9.12258 5.48736V7.05516H10.6904C10.7943 7.05369 10.8974 7.07288 10.9938 7.11162C11.0902 7.15035 11.1779 7.20786 11.2519 7.2808C11.3259 7.35374 11.3846 7.44065 11.4247 7.53649C11.4648 7.63232 11.4854 7.73518 11.4854 7.83906C11.4854 7.94295 11.4648 8.0458 11.4247 8.14164C11.3846 8.23747 11.3259 8.32439 11.2519 8.39732C11.1779 8.47026 11.0902 8.52777 10.9938 8.5665C10.8974 8.60524 10.7943 8.62443 10.6904 8.62296H9.12258V10.1908C9.12405 10.2946 9.10486 10.3978 9.06612 10.4942C9.02738 10.5906 8.96988 10.6783 8.89694 10.7523C8.824 10.8262 8.73709 10.885 8.64125 10.9251C8.54541 10.9652 8.44256 10.9858 8.33868 10.9858C8.23479 10.9858 8.13194 10.9652 8.0361 10.9251C7.94027 10.885 7.85335 10.8262 7.78042 10.7523C7.70748 10.6783 7.64997 10.5906 7.61124 10.4942C7.5725 10.3978 7.55331 10.2946 7.55478 10.1908V8.62296H5.98698C5.8831 8.62443 5.77997 8.60524 5.68358 8.5665C5.58718 8.52777 5.49945 8.47026 5.42547 8.39732C5.35149 8.32439 5.29275 8.23747 5.25266 8.14164C5.21256 8.0458 5.19192 7.94295 5.19192 7.83906C5.19192 7.73518 5.21256 7.63232 5.25266 7.53649C5.29275 7.44065 5.35149 7.35374 5.42547 7.2808C5.49945 7.20786 5.58718 7.15035 5.68358 7.11162C5.77997 7.07288 5.8831 7.05369 5.98698 7.05516H7.55478V5.48736C7.55193 5.27972 7.63158 5.07942 7.77625 4.93044Z"
    fill="currentColor" />
</svg>
  